<svg width="318" height="318" viewBox="0 0 318 318" fill="none" xmlns="http://www.w3.org/2000/svg">
<path d="M219.67 96.97C204.37 80.88 182.75 70.85 158.79 70.85C134.82 70.85 113.2 80.89 97.89 96.98C104.85 69.84 129.47 49.78 158.79 49.78C188.09 49.78 212.72 69.84 219.67 96.97Z" fill="#565656"/>
<path d="M221.64 112.63C221.64 147.35 193.5 192.03 158.79 192.03C124.07 192.03 95.93 147.35 95.93 112.63C95.93 107.23 96.61 101.98 97.89 96.98C113.2 80.89 134.82 70.85 158.79 70.85C182.75 70.85 204.37 80.88 219.67 96.97C220.96 101.98 221.64 107.22 221.64 112.63Z" fill="#D7D7D7"/>
<path d="M261.99 279.47V279.48C234.24 303.23 198.19 317.58 158.79 317.58C139.53 317.58 121.06 314.15 103.98 307.86C86.11 301.3 69.76 291.61 55.57 279.46C55.65 278.59 55.74 277.73 55.84 276.86C55.93 276.1 56.02 275.34 56.13 274.59C56.16 274.38 56.19 274.18 56.22 273.97C56.32 273.22 56.44 272.47 56.57 271.73C56.63 271.35 56.7 270.96 56.77 270.57C56.83 270.19 56.91 269.81 56.98 269.42C57.06 269.01 57.14 268.59 57.23 268.17C57.31 267.75 57.4 267.34 57.49 266.93C57.58 266.52 57.67 266.11 57.77 265.7C57.81 265.52 57.85 265.34 57.89 265.17C57.93 264.99 57.97 264.81 58.02 264.63C58.15 264.08 58.28 263.53 58.43 262.98C58.43 262.94 58.44 262.9 58.46 262.87C74.21 275.73 92.47 285.62 112.39 291.69C127.06 296.17 142.65 298.58 158.79 298.58C196.84 298.58 231.77 285.2 259.11 262.88C259.14 263 259.17 263.12 259.2 263.25C259.21 263.29 259.22 263.32 259.23 263.36C259.36 263.86 259.48 264.35 259.6 264.85V264.86C259.61 264.9 259.62 264.95 259.63 265C259.65 265.07 259.67 265.15 259.68 265.22C259.82 265.79 259.95 266.37 260.07 266.94C260.18 267.45 260.29 267.96 260.39 268.48C260.48 268.89 260.56 269.29 260.63 269.7C260.76 270.35 260.87 271 260.98 271.66C260.99 271.73 261.01 271.81 261.01 271.89C261.12 272.52 261.22 273.15 261.31 273.79C261.36 274.09 261.4 274.39 261.44 274.7C261.55 275.42 261.64 276.14 261.72 276.87C261.82 277.73 261.91 278.6 261.99 279.47Z" fill="#565656"/>
<path d="M259.11 262.88C231.77 285.2 196.84 298.58 158.79 298.58C120.73 298.58 85.81 285.2 58.46 262.87C63.89 241.92 75.72 223.54 91.73 209.94C102.89 200.46 118.85 199.67 131.37 207.26C139.83 212.39 149.09 215.4 158.79 215.4C168.49 215.4 177.74 212.39 186.2 207.26C198.69 199.7 214.62 200.43 225.76 209.87C241.81 223.48 253.67 241.88 259.11 262.88Z" fill="#D7D7D7"/>
<path d="M249.41 28.38C223.71 10.49 192.48 0 158.79 0C133.2 0 109.02 6.05 87.62 16.8C35.66 42.9 0 96.68 0 158.79C0 166.66 0.57 174.4 1.68 181.96C7.36 220.81 27.1 255.09 55.57 279.46C55.65 278.59 55.74 277.73 55.84 276.86C55.93 276.1 56.02 275.34 56.13 274.59C56.16 274.38 56.19 274.18 56.22 273.97C56.32 273.22 56.44 272.47 56.57 271.73C56.63 271.35 56.7 270.96 56.77 270.57C56.83 270.19 56.91 269.81 56.98 269.42C57.06 269.01 57.14 268.59 57.23 268.17C57.31 267.75 57.4 267.34 57.49 266.93C57.58 266.52 57.67 266.11 57.77 265.7C57.81 265.52 57.85 265.34 57.89 265.17C57.93 264.99 57.97 264.81 58.02 264.63C58.15 264.08 58.28 263.53 58.43 262.98C58.43 262.94 58.44 262.9 58.46 262.87C58.46 262.84 58.47 262.81 58.48 262.79C58.63 262.19 58.79 261.59 58.96 261C59.33 259.67 59.73 258.36 60.15 257.05C60.27 256.69 60.38 256.33 60.51 255.97C60.68 255.46 60.85 254.96 61.03 254.46C61.26 253.79 61.5 253.13 61.75 252.48C62.43 250.66 63.17 248.86 63.96 247.09C64.19 246.54 64.44 245.99 64.7 245.45C64.71 245.42 64.72 245.4 64.74 245.37C64.9 245.01 65.07 244.65 65.24 244.3C65.29 244.21 65.33 244.11 65.38 244.02C65.65 243.43 65.94 242.84 66.24 242.26C66.84 241.08 67.45 239.91 68.1 238.76C68.41 238.18 68.74 237.6 69.08 237.03C69.4 236.46 69.74 235.89 70.09 235.33C70.42 234.77 70.77 234.21 71.13 233.65C71.83 232.53 72.55 231.43 73.31 230.35C73.55 229.98 73.8 229.62 74.07 229.26C74.07 229.26 74.07 229.25 74.08 229.25C74.41 228.76 74.76 228.29 75.12 227.8C75.38 227.43 75.66 227.05 75.95 226.69C76 226.63 76.04 226.56 76.09 226.5C76.32 226.18 76.55 225.88 76.8 225.57C77.6 224.53 78.42 223.51 79.27 222.5C79.66 222.02 80.07 221.54 80.49 221.07C80.52 221.03 80.55 220.99 80.59 220.95C80.92 220.57 81.25 220.19 81.59 219.82C82.28 219.04 82.98 218.28 83.7 217.54C83.97 217.24 84.26 216.95 84.54 216.66C85.23 215.95 85.92 215.26 86.63 214.58C86.66 214.54 86.68 214.52 86.71 214.5C87.3 213.92 87.9 213.35 88.51 212.8C88.62 212.69 88.74 212.58 88.85 212.48C89.3 212.07 89.76 211.66 90.22 211.25C90.72 210.81 91.22 210.37 91.73 209.94C102.89 200.46 118.85 199.67 131.37 207.26C132.02 207.66 132.68 208.04 133.35 208.41C133.72 208.62 134.09 208.82 134.46 209.01C135.51 209.58 136.58 210.11 137.66 210.6C137.88 210.71 138.11 210.81 138.34 210.91C138.73 211.09 139.13 211.26 139.52 211.42C140.01 211.62 140.5 211.82 140.99 212.01C142.28 212.5 143.59 212.95 144.91 213.34C145.38 213.48 145.86 213.62 146.34 213.74C146.85 213.88 147.36 214.01 147.88 214.13C148.46 214.26 149.03 214.38 149.61 214.5C150.05 214.59 150.49 214.67 150.93 214.74H150.96C151.39 214.81 151.81 214.88 152.24 214.94C152.27 214.94 152.29 214.95 152.32 214.95H152.33C152.38 214.96 152.44 214.96 152.49 214.97C152.88 215.03 153.28 215.07 153.67 215.12C154.08 215.17 154.49 215.21 154.9 215.23C155.02 215.25 155.13 215.26 155.25 215.27C155.57 215.29 155.88 215.31 156.2 215.32C156.52 215.35 156.84 215.36 157.16 215.37C157.7 215.39 158.25 215.4 158.79 215.4C168.49 215.4 177.74 212.39 186.2 207.26C198.69 199.7 214.62 200.43 225.76 209.87C226.27 210.3 226.78 210.74 227.28 211.18C227.66 211.52 228.03 211.85 228.4 212.19C229.38 213.08 230.35 213.99 231.3 214.92C231.87 215.47 232.42 216.03 232.97 216.59C233.58 217.21 234.17 217.84 234.77 218.48C235.3 219.05 235.83 219.63 236.34 220.22C236.69 220.62 237.04 221.01 237.38 221.41C237.68 221.75 237.97 222.09 238.26 222.44C238.91 223.21 239.54 224 240.16 224.79C240.76 225.55 241.35 226.31 241.93 227.09C241.95 227.12 241.97 227.16 242 227.19C242.03 227.23 242.06 227.26 242.08 227.3C242.43 227.75 242.77 228.22 243.09 228.68C243.48 229.21 243.86 229.75 244.23 230.3C244.61 230.84 244.98 231.39 245.34 231.94C245.67 232.44 246 232.94 246.32 233.45C246.36 233.52 246.4 233.59 246.45 233.66C246.67 234 246.88 234.33 247.08 234.68C247.38 235.15 247.67 235.63 247.95 236.12C248.01 236.21 248.07 236.31 248.12 236.4C248.39 236.84 248.65 237.29 248.89 237.74C249.09 238.06 249.27 238.39 249.45 238.72C249.9 239.53 250.34 240.35 250.77 241.18C250.91 241.45 251.06 241.73 251.2 242.01C251.35 242.29 251.49 242.57 251.62 242.85C251.63 242.87 251.64 242.88 251.65 242.9C251.66 242.92 251.67 242.94 251.68 242.96C251.94 243.49 252.2 244.02 252.45 244.56C252.61 244.88 252.76 245.2 252.9 245.52C253.23 246.23 253.55 246.94 253.86 247.65C254.16 248.33 254.45 249.02 254.73 249.72C255.02 250.41 255.3 251.11 255.57 251.82C255.64 252.01 255.71 252.2 255.78 252.4C255.96 252.88 256.14 253.35 256.31 253.83C256.33 253.87 256.34 253.92 256.36 253.96C256.47 254.26 256.58 254.57 256.68 254.88C256.93 255.59 257.17 256.31 257.41 257.04C257.65 257.77 257.88 258.51 258.1 259.25C258.28 259.87 258.46 260.48 258.63 261.11C258.76 261.57 258.89 262.03 259.01 262.5C259.05 262.62 259.08 262.75 259.11 262.88C259.14 263 259.17 263.12 259.2 263.25C259.21 263.29 259.22 263.32 259.23 263.36C259.36 263.85 259.49 264.35 259.6 264.85V264.86C259.61 264.9 259.62 264.95 259.63 265C259.65 265.07 259.67 265.15 259.68 265.22C259.82 265.79 259.95 266.36 260.07 266.94C260.18 267.45 260.29 267.96 260.39 268.48C260.48 268.89 260.56 269.29 260.63 269.7C260.76 270.35 260.87 271 260.98 271.66C260.99 271.73 261.01 271.81 261.01 271.89C261.12 272.52 261.22 273.15 261.31 273.79C261.36 274.09 261.4 274.39 261.44 274.7C261.55 275.42 261.64 276.14 261.72 276.87C261.82 277.73 261.91 278.6 261.99 279.47C296.02 250.35 317.58 207.09 317.58 158.79C317.58 104.78 290.61 57.06 249.41 28.38ZM164.47 191.62H164.46C162.59 191.89 160.7 192.03 158.79 192.03C124.07 192.03 95.93 147.35 95.93 112.63C95.93 77.92 124.07 49.78 158.79 49.78C185.48 49.78 208.29 66.42 217.4 89.89C220.14 96.94 221.64 104.61 221.64 112.63C221.64 145.44 196.52 187.13 164.47 191.62Z" fill="#F14146"/>
<path opacity="0.23" d="M87.62 16.8L76.53 38.11L64.7 60.85L38.74 110.73L26.35 134.55L2.41 180.55L1.68 181.96C0.57 174.4 0 166.66 0 158.79C0 96.68 35.66 42.9 87.62 16.8Z" fill="#F2F2F2"/>
<path opacity="0.23" d="M317.58 158.79C317.58 207.09 296.02 250.35 261.99 279.47V279.48C234.24 303.23 198.19 317.58 158.79 317.58C139.53 317.58 121.06 314.15 103.98 307.86L112.39 291.69L152.32 214.95H152.33L164.46 191.62H164.47L217.4 89.89L249.41 28.38C290.61 57.06 317.58 104.78 317.58 158.79Z" fill="#F2F2F2"/>
</svg>
